<svg width="24" height="30" viewBox="0 0 24 30" fill="none" xmlns="http://www.w3.org/2000/svg">
<path fill-rule="evenodd" clip-rule="evenodd" d="M20.0403 15.3947C20.0091 11.6642 23.0934 9.85113 23.2289 9.76777C21.4783 7.22525 18.7691 6.87097 17.8208 6.83971C15.5493 6.60005 13.3402 8.20475 12.1835 8.20475C11.0061 8.20475 9.2138 6.87097 7.29649 6.90223C4.82692 6.94391 2.50322 8.37147 1.24238 10.6014C-1.37307 15.1342 0.575494 21.803 3.08675 25.4709C4.34759 27.2632 5.80641 29.2743 7.73414 29.2014C9.60977 29.1284 10.3183 28.003 12.5795 28.003C14.8303 28.003 15.4867 29.2014 17.4457 29.1597C19.4672 29.1284 20.7281 27.357 21.9472 25.5439C23.3956 23.4911 23.9792 21.4592 24 21.355C23.9479 21.3341 20.082 19.8545 20.0403 15.3947Z" fill="#FBFBFB"/>
<path fill-rule="evenodd" clip-rule="evenodd" d="M16.3412 4.73075C17.3519 3.46991 18.0396 1.75059 17.8521 0C16.3933 0.0625209 14.5593 1.01075 13.5069 2.25075C12.5795 3.34487 11.7459 5.12672 11.9543 6.80436C13.6007 6.9294 15.2887 5.97075 16.3412 4.73075Z" fill="#FBFBFB"/>
</svg>
