<svg width="171" height="48" viewBox="0 0 171 48" fill="none" xmlns="http://www.w3.org/2000/svg">
<path fill-rule="evenodd" clip-rule="evenodd" d="M43.7989 47.8041V0H50.838V47.8041H43.7989ZM0 0.391838H7.6257V22.3347C22.6425 20.7673 27.4395 7.05306 27.9609 0.391838H35.9776C35.8212 13.0873 27.9609 21.3551 24.0503 23.902L40.0838 47.8041H30.6983C26.7877 42.0571 18.6145 30.0539 17.2067 28.0163C14.2346 29.8971 9.58101 30.498 7.6257 30.5633V30.9551V47.8041H0V0.391838ZM57.4863 12.5387H64.7209V32.5224C64.7861 35.5265 66.4807 41.4955 72.7377 41.3387C78.9947 41.182 81.341 35.3959 81.7321 32.5224V12.5387H89.1623V47.4122H82.7098L81.9276 42.9061C80.4938 44.7346 76.3355 48.2351 71.1735 47.6081C64.7209 46.8244 58.0729 45.6489 57.4863 32.3265V12.5387Z" fill="white"/>
<ellipse cx="100.503" cy="43.298" rx="4.69274" ry="4.70204" fill="#EFC170"/>
<path d="M114.896 31.4227V16.5773" stroke="white" stroke-width="1.95966" stroke-linecap="round"/>
<path d="M141.791 16.2336V17.0793C141.09 17.1276 140.607 17.2404 140.341 17.4176C140.084 17.5867 139.955 17.8847 139.955 18.3116V29.7404C139.955 30.0545 140.092 30.2921 140.365 30.4532C140.647 30.6062 141.123 30.7069 141.791 30.7552V31.6009C139.584 31.5445 137.679 31.5445 136.077 31.6009V30.7552C136.342 30.57 136.471 30.1351 136.463 29.4505V28.9068C135.424 30.8801 133.793 31.8586 131.57 31.8425C130.04 31.8425 128.832 31.3955 127.946 30.5015C127.06 29.5914 126.617 28.3994 126.617 26.9255V18.3116C126.617 17.8847 126.488 17.5867 126.231 17.4176C125.973 17.2404 125.494 17.1276 124.793 17.0793V16.2336C127.185 16.3142 129.569 16.3142 131.945 16.2336V17.0793C131.244 17.1276 130.761 17.2404 130.495 17.4176C130.237 17.5867 130.109 17.8847 130.109 18.3116V26.9013C130.109 28.1336 130.33 29.0759 130.773 29.7283C131.224 30.3807 131.876 30.7069 132.73 30.7069C133.616 30.7069 134.369 30.4008 134.989 29.7887C135.618 29.1847 136.109 28.4356 136.463 27.5416V18.3116C136.463 17.8847 136.334 17.5867 136.077 17.4176C135.819 17.2404 135.34 17.1276 134.639 17.0793V16.2336C137.031 16.3142 139.415 16.3142 141.791 16.2336Z" fill="white"/>
<path d="M150.586 28.5323C150.586 27.8477 150.336 27.2477 149.837 26.7322C149.346 26.2167 148.516 25.669 147.348 25.0891C145.955 24.4126 144.88 23.6958 144.123 22.9387C143.358 22.1736 142.975 21.203 142.975 20.0271C142.975 18.7546 143.422 17.7398 144.316 16.9827C145.226 16.2175 146.386 15.835 147.795 15.835C148.472 15.835 149.128 15.9356 149.765 16.137C150.401 16.3383 150.775 16.439 150.888 16.439C151.218 16.439 151.416 16.3061 151.48 16.0403H152.471L152.664 19.6043H151.855C151.025 17.8002 149.869 16.8901 148.387 16.8739C147.671 16.8739 147.099 17.0753 146.672 17.478C146.253 17.8727 146.044 18.376 146.044 18.9881C146.044 19.6164 146.269 20.1681 146.72 20.6433C147.179 21.1104 147.908 21.5695 148.907 22.0205L149.487 22.2984L150.151 22.6246C150.272 22.6729 150.49 22.7857 150.804 22.9629C151.126 23.132 151.355 23.2689 151.492 23.3736C151.742 23.5669 151.943 23.7159 152.096 23.8206C152.378 24.0139 152.58 24.1911 152.7 24.3522L153.159 24.9442C153.353 25.1777 153.494 25.4194 153.582 25.669C153.8 26.2892 153.909 26.8651 153.909 27.3967C153.909 28.3954 153.627 29.2491 153.063 29.9579C152.032 31.2868 150.558 31.9513 148.641 31.9513C147.876 31.9513 147.107 31.7781 146.334 31.4318C145.568 31.0854 145.081 30.9123 144.872 30.9123C144.413 30.9123 144.127 31.1418 144.014 31.6009H143.023L142.77 27.8437H143.736C144.147 28.8021 144.755 29.5471 145.56 30.0787C146.358 30.5861 147.183 30.8398 148.037 30.8398C148.81 30.8398 149.426 30.6344 149.885 30.2236C150.353 29.8048 150.586 29.241 150.586 28.5323Z" fill="white"/>
<path d="M163.271 16.1128L167.85 28.4598C168.172 29.3055 168.49 29.8814 168.805 30.1874C169.135 30.5096 169.683 30.6988 170.448 30.7552V31.6009C167.943 31.5365 165.446 31.5365 162.957 31.6009V30.7552C163.731 30.7069 164.246 30.5821 164.504 30.3807C164.761 30.1794 164.798 29.8451 164.612 29.378L163.622 26.6476H158.729L157.835 29.378C157.69 29.8209 157.823 30.1512 158.234 30.3686C158.644 30.578 159.345 30.7069 160.336 30.7552V31.6009C158.226 31.5204 156.119 31.5204 154.017 31.6009V30.7552C154.839 30.6988 155.463 30.5378 155.89 30.272C156.301 30.0142 156.611 29.5914 156.82 29.0035L161.242 16.1128H163.271ZM161.048 19.6285L159.043 25.7174H163.271L161.048 19.6285Z" fill="white"/>
</svg>
