<svg width="82" height="38" viewBox="0 0 82 38" fill="none" xmlns="http://www.w3.org/2000/svg">
<path fill-rule="evenodd" clip-rule="evenodd" d="M34.0551 37.0956V0H39.5283V37.0956H34.0551ZM0 0.303996H5.92922V17.3315C17.6052 16.1152 21.335 5.47306 21.7405 0.303996H27.9737C27.8521 10.1556 21.7405 16.5713 18.6998 18.5477L31.1664 37.0956H23.8689C20.8283 32.636 14.4734 23.3215 13.3787 21.7404C11.0679 23.1999 7.44953 23.6661 5.92922 23.7168V24.0209V37.0956H0V0.303996ZM44.6973 9.72999H50.3224V25.2372C50.3731 27.5683 51.6907 32.2002 56.5557 32.0786C61.4207 31.957 63.2451 27.467 63.5491 25.2372V9.72999H69.3263V36.7916H64.3093L63.7012 33.2948C62.5863 34.7138 59.3531 37.4301 55.3394 36.9436C50.3224 36.3355 45.1534 35.4233 44.6973 25.0851V9.72999Z" fill="#111111"/>
<ellipse cx="78.144" cy="33.5989" rx="3.64875" ry="3.64875" fill="#EFC170"/>
</svg>
