<svg width="24" height="27" viewBox="0 0 24 27" fill="none" xmlns="http://www.w3.org/2000/svg">
<path fill-rule="evenodd" clip-rule="evenodd" d="M22.8918 11.493L3.29178 0.289272C2.95387 0.0962539 2.57766 0 2.20145 0C2.1938 0 2.18626 0.00102123 2.17873 0.00102123C2.12818 0.00153186 2.07775 0.00408496 2.02746 0.00804234C2.00473 0.00982954 1.98214 0.012255 1.95942 0.0148081C1.9201 0.0191485 1.88091 0.0246379 1.84184 0.0311485C1.82767 0.033574 1.81338 0.0343397 1.79921 0.0370205L1.79997 0.0380421C1.55576 0.0831052 1.31743 0.169146 1.09594 0.297697C0.417568 0.691265 0 1.41623 0 2.20043V24.6078C0 25.392 0.417568 26.1169 1.09594 26.5105C1.3173 26.6391 1.55564 26.7252 1.79984 26.7703L1.79921 26.7712C1.81197 26.7736 1.82486 26.7744 1.8375 26.7764C1.8795 26.7836 1.92163 26.7894 1.96388 26.7939C1.98507 26.7962 2.00614 26.7985 2.02733 26.8002C2.07699 26.8041 2.12652 26.8064 2.17631 26.8071C2.18473 26.8072 2.19303 26.8082 2.20145 26.8082C2.57766 26.8082 2.95387 26.712 3.29178 26.5189L22.8918 15.3151C23.5771 14.9233 24 14.1946 24 13.4051C24 13.4051 24 13.4047 24 13.4046C24 13.4046 24 13.4042 24 13.404C24 13.404 24 13.4037 24 13.4035C24 13.4035 24 13.4031 24 13.403C24 12.6136 23.5771 11.8849 22.8918 11.493ZM15.1407 9.26806L13.1919 11.8247L8.23366 5.31974L15.1407 9.26806ZM21.9415 13.6526L8.23366 21.4883L16.8166 10.2282L21.9414 13.1575C22.0301 13.2082 22.0853 13.3032 22.0853 13.4049C22.0853 13.5071 22.03 13.602 21.9415 13.6526Z" fill="white"/>
</svg>
