<svg width="24" height="24" viewBox="0 0 24 24" fill="none" xmlns="http://www.w3.org/2000/svg">
<path d="M8.31634 18.9997V9.55354H5.18471V18.9997H8.31661H8.31634ZM6.75107 8.26405C7.84293 8.26405 8.52267 7.53865 8.52267 6.63216C8.50215 5.7051 7.84293 5 6.77187 5C5.69999 5 5 5.7051 5 6.63216C5 7.53865 5.67947 8.26405 6.73055 8.26405H6.7508H6.75107ZM10.0496 18.9997H13.181V13.7252C13.181 13.4431 13.2015 13.1605 13.2841 12.9592C13.5105 12.3948 14.0257 11.8107 14.891 11.8107C16.0239 11.8107 16.4773 12.6768 16.4773 13.9469V18.9997H19.6087V13.5836C19.6087 10.6823 18.064 9.33213 16.0037 9.33213C14.3144 9.33213 13.5726 10.2787 13.1605 10.9234H13.1813V9.55381H10.0499C10.0907 10.44 10.0496 19 10.0496 19V18.9997Z" fill="#533EF5"/>
</svg>
