<svg width="24" height="24" viewBox="0 0 24 24" fill="none" xmlns="http://www.w3.org/2000/svg">
<path fill-rule="evenodd" clip-rule="evenodd" d="M18.5906 6.87708C19.2687 6.44024 19.789 5.74758 20.0341 4.92244C19.3992 5.32692 18.6977 5.62118 17.9483 5.77892C17.351 5.09232 16.4973 4.66357 15.5525 4.66357C13.7409 4.66357 12.2712 6.24609 12.2712 8.1977C12.2712 8.47477 12.2994 8.74375 12.3557 9.00261C9.62754 8.85498 7.20928 7.44942 5.58927 5.30872C5.3066 5.83252 5.14507 6.44024 5.14507 7.08741C5.14507 8.31298 5.72451 9.39496 6.60542 10.029C6.06823 10.0118 5.5611 9.85101 5.11783 9.5881V9.63158C5.11783 11.3445 6.24949 12.7734 7.7521 13.0969C7.47693 13.1799 7.18674 13.2213 6.88716 13.2213C6.67585 13.2213 6.46924 13.2001 6.26921 13.1586C6.68712 14.5622 7.8986 15.5845 9.33547 15.6118C8.21227 16.5603 6.79606 17.1255 5.2587 17.1255C4.99387 17.1255 4.73185 17.1094 4.47546 17.077C5.9283 18.0781 7.65443 18.6636 9.50734 18.6636C15.546 18.6636 18.847 13.279 18.847 8.60825C18.847 8.45455 18.8442 8.30084 18.8386 8.15018C19.48 7.65166 20.0369 7.02977 20.4755 6.32092C19.8876 6.60204 19.2546 6.79214 18.5906 6.87708Z" fill="#533EF5"/>
</svg>
