<svg width="24" height="24" viewBox="0 0 24 24" fill="none" xmlns="http://www.w3.org/2000/svg">
<path fill-rule="evenodd" clip-rule="evenodd" d="M10.7098 3.30005L13.8903 3.30005C16.1191 3.30005 16.9273 3.53211 17.7422 3.96788C18.557 4.40365 19.1964 5.04312 19.6322 5.85793C20.068 6.67275 20.3 7.48096 20.3 9.70976V12.8903C20.3 15.1191 20.068 15.9273 19.6322 16.7422C19.1964 17.557 18.557 18.1964 17.7422 18.6322C16.9273 19.068 16.1191 19.3 13.8903 19.3H10.7098C8.48096 19.3 7.67275 19.068 6.85793 18.6322C6.04312 18.1964 5.40365 17.557 4.96788 16.7422C4.53211 15.9273 4.30005 15.1191 4.30005 12.8903V9.70976C4.30005 7.48096 4.53211 6.67275 4.96788 5.85793C5.40365 5.04312 6.04312 4.40365 6.85793 3.96788C7.67275 3.53211 8.48096 3.30005 10.7098 3.30005ZM12.3 15.5353C14.3792 15.5353 16.0648 13.8498 16.0648 11.7706C16.0648 9.69145 14.3792 8.00593 12.3 8.00593C10.2209 8.00593 8.53534 9.69145 8.53534 11.7706C8.53534 13.8498 10.2209 15.5353 12.3 15.5353Z" stroke="#533EF5" stroke-width="2" stroke-linecap="round" stroke-linejoin="round"/>
<path d="M16.5354 7.59424C17.0877 7.59424 17.5354 7.14652 17.5354 6.59424C17.5354 6.04195 17.0877 5.59424 16.5354 5.59424C15.9831 5.59424 15.5354 6.04195 15.5354 6.59424C15.5354 7.14652 15.9831 7.59424 16.5354 7.59424Z" fill="#533EF5"/>
</svg>
